<?xml version="1.0" encoding="UTF-8"?>
<svg xmlns="http://www.w3.org/2000/svg" xmlns:xlink="http://www.w3.org/1999/xlink" width="871.033" height="871.033" viewBox="0 0 871.033 871.033">
<defs>
<clipPath id="clip-0">
<path clip-rule="nonzero" d="M 839 143 L 871.03125 143 L 871.03125 187 L 839 187 Z M 839 143 "/>
</clipPath>
<clipPath id="clip-1">
<path clip-rule="nonzero" d="M 143 839 L 187 839 L 187 871.03125 L 143 871.03125 Z M 143 839 "/>
</clipPath>
<clipPath id="clip-2">
<path clip-rule="nonzero" d="M 684 839 L 728 839 L 728 871.03125 L 684 871.03125 Z M 684 839 "/>
</clipPath>
<clipPath id="clip-3">
<path clip-rule="nonzero" d="M 839 684 L 871.03125 684 L 871.03125 728 L 839 728 Z M 839 684 "/>
</clipPath>
</defs>
<path fill="none" stroke-width="0.3985" stroke-linecap="butt" stroke-linejoin="miter" stroke="rgb(9.01947%, 43.528748%, 75.489807%)" stroke-opacity="1" stroke-miterlimit="10" d="M 7.297187 -147.320625 L 147.320625 -7.297188 " transform="matrix(1, 0, 0, -1, 10.32, 10.32)"/>
<path fill="none" stroke-width="0.3985" stroke-linecap="butt" stroke-linejoin="miter" stroke="rgb(9.01947%, 43.528748%, 75.489807%)" stroke-opacity="1" stroke-miterlimit="10" d="M 9.230781 -150.004219 L 145.390938 -81.926094 " transform="matrix(1, 0, 0, -1, 10.32, 10.32)"/>
<path fill="none" stroke-width="0.3985" stroke-linecap="butt" stroke-linejoin="miter" stroke="rgb(9.01947%, 43.528748%, 75.489807%)" stroke-opacity="1" stroke-miterlimit="10" d="M 9.230781 -159.234688 L 145.390938 -227.312813 " transform="matrix(1, 0, 0, -1, 10.32, 10.32)"/>
<path fill="none" stroke-width="0.3985" stroke-linecap="butt" stroke-linejoin="miter" stroke="rgb(9.01947%, 43.528748%, 75.489807%)" stroke-opacity="1" stroke-miterlimit="10" d="M 7.297187 -161.914375 L 147.320625 -301.941719 " transform="matrix(1, 0, 0, -1, 10.32, 10.32)"/>
<path fill="none" stroke-width="0.3985" stroke-linecap="butt" stroke-linejoin="miter" stroke="rgb(84.552002%, 57.254028%, 40.519714%)" stroke-opacity="1" stroke-miterlimit="10" d="M 0.0003125 -164.937813 L 0.0003125 -685.465156 " transform="matrix(1, 0, 0, -1, 10.32, 10.32)"/>
<path fill="none" stroke-width="0.3985" stroke-linecap="butt" stroke-linejoin="miter" stroke="rgb(9.01947%, 43.528748%, 75.489807%)" stroke-opacity="1" stroke-miterlimit="10" d="M 150.004219 -9.230781 L 81.926094 -145.390938 " transform="matrix(1, 0, 0, -1, 10.32, 10.32)"/>
<path fill="none" stroke-width="0.3985" stroke-linecap="butt" stroke-linejoin="miter" stroke="rgb(9.01947%, 43.528748%, 75.489807%)" stroke-opacity="1" stroke-miterlimit="10" d="M 159.234688 -9.230781 L 227.312813 -145.390938 " transform="matrix(1, 0, 0, -1, 10.32, 10.32)"/>
<path fill="none" stroke-width="0.3985" stroke-linecap="butt" stroke-linejoin="miter" stroke="rgb(9.01947%, 43.528748%, 75.489807%)" stroke-opacity="1" stroke-miterlimit="10" d="M 161.914375 -7.297188 L 301.941719 -147.320625 " transform="matrix(1, 0, 0, -1, 10.32, 10.32)"/>
<path fill="none" stroke-width="0.3985" stroke-linecap="butt" stroke-linejoin="miter" stroke="rgb(84.552002%, 57.254028%, 40.519714%)" stroke-opacity="1" stroke-miterlimit="10" d="M 164.937813 -0.0003125 L 685.465156 -0.0003125 " transform="matrix(1, 0, 0, -1, 10.32, 10.32)"/>
<path fill="none" stroke-width="0.3985" stroke-linecap="butt" stroke-linejoin="miter" stroke="rgb(9.01947%, 43.528748%, 75.489807%)" stroke-opacity="1" stroke-miterlimit="10" d="M 147.320625 -84.605781 L 84.605781 -147.320625 " transform="matrix(1, 0, 0, -1, 10.32, 10.32)"/>
<path fill="none" stroke-width="0.3985" stroke-linecap="butt" stroke-linejoin="miter" stroke="rgb(9.01947%, 43.528748%, 75.489807%)" stroke-opacity="1" stroke-miterlimit="10" d="M 161.914375 -84.605781 L 224.633125 -147.320625 " transform="matrix(1, 0, 0, -1, 10.32, 10.32)"/>
<path fill="none" stroke-width="0.3985" stroke-linecap="butt" stroke-linejoin="miter" stroke="rgb(9.01947%, 43.528748%, 75.489807%)" stroke-opacity="1" stroke-miterlimit="10" d="M 163.847969 -81.926094 L 300.008125 -150.004219 " transform="matrix(1, 0, 0, -1, 10.32, 10.32)"/>
<path fill="none" stroke-width="0.3985" stroke-linecap="butt" stroke-linejoin="miter" stroke="rgb(84.552002%, 57.254028%, 40.519714%)" stroke-opacity="1" stroke-miterlimit="10" d="M 164.937813 -77.308906 L 685.465156 -77.308906 " transform="matrix(1, 0, 0, -1, 10.32, 10.32)"/>
<path fill="none" stroke-width="0.3985" stroke-linecap="butt" stroke-linejoin="miter" stroke="rgb(9.01947%, 43.528748%, 75.489807%)" stroke-opacity="1" stroke-miterlimit="10" d="M 147.320625 -224.633125 L 84.605781 -161.914375 " transform="matrix(1, 0, 0, -1, 10.32, 10.32)"/>
<path fill="none" stroke-width="0.3985" stroke-linecap="butt" stroke-linejoin="miter" stroke="rgb(9.01947%, 43.528748%, 75.489807%)" stroke-opacity="1" stroke-miterlimit="10" d="M 161.914375 -224.633125 L 224.633125 -161.914375 " transform="matrix(1, 0, 0, -1, 10.32, 10.32)"/>
<path fill="none" stroke-width="0.3985" stroke-linecap="butt" stroke-linejoin="miter" stroke="rgb(9.01947%, 43.528748%, 75.489807%)" stroke-opacity="1" stroke-miterlimit="10" d="M 163.847969 -227.312813 L 300.008125 -159.234688 " transform="matrix(1, 0, 0, -1, 10.32, 10.32)"/>
<path fill="none" stroke-width="0.3985" stroke-linecap="butt" stroke-linejoin="miter" stroke="rgb(84.552002%, 57.254028%, 40.519714%)" stroke-opacity="1" stroke-miterlimit="10" d="M 164.937813 -231.93 L 685.465156 -231.93 " transform="matrix(1, 0, 0, -1, 10.32, 10.32)"/>
<path fill="none" stroke-width="0.3985" stroke-linecap="butt" stroke-linejoin="miter" stroke="rgb(9.01947%, 43.528748%, 75.489807%)" stroke-opacity="1" stroke-miterlimit="10" d="M 150.004219 -300.008125 L 81.926094 -163.847969 " transform="matrix(1, 0, 0, -1, 10.32, 10.32)"/>
<path fill="none" stroke-width="0.3985" stroke-linecap="butt" stroke-linejoin="miter" stroke="rgb(9.01947%, 43.528748%, 75.489807%)" stroke-opacity="1" stroke-miterlimit="10" d="M 159.234688 -300.008125 L 227.312813 -163.847969 " transform="matrix(1, 0, 0, -1, 10.32, 10.32)"/>
<path fill="none" stroke-width="0.3985" stroke-linecap="butt" stroke-linejoin="miter" stroke="rgb(9.01947%, 43.528748%, 75.489807%)" stroke-opacity="1" stroke-miterlimit="10" d="M 161.914375 -301.941719 L 301.941719 -161.914375 " transform="matrix(1, 0, 0, -1, 10.32, 10.32)"/>
<path fill="none" stroke-width="0.3985" stroke-linecap="butt" stroke-linejoin="miter" stroke="rgb(84.552002%, 57.254028%, 40.519714%)" stroke-opacity="1" stroke-miterlimit="10" d="M 164.937813 -309.238594 L 685.465156 -309.238594 " transform="matrix(1, 0, 0, -1, 10.32, 10.32)"/>
<path fill="none" stroke-width="0.3985" stroke-linecap="butt" stroke-linejoin="miter" stroke="rgb(84.552002%, 57.254028%, 40.519714%)" stroke-opacity="1" stroke-miterlimit="10" d="M 77.308906 -164.937813 L 77.308906 -685.465156 " transform="matrix(1, 0, 0, -1, 10.32, 10.32)"/>
<path fill="none" stroke-width="0.3985" stroke-linecap="butt" stroke-linejoin="miter" stroke="rgb(84.552002%, 57.254028%, 40.519714%)" stroke-opacity="1" stroke-miterlimit="10" d="M 231.93 -164.937813 L 231.93 -685.465156 " transform="matrix(1, 0, 0, -1, 10.32, 10.32)"/>
<path fill="none" stroke-width="0.3985" stroke-linecap="butt" stroke-linejoin="miter" stroke="rgb(84.552002%, 57.254028%, 40.519714%)" stroke-opacity="1" stroke-miterlimit="10" d="M 309.238594 -164.937813 L 309.238594 -685.465156 " transform="matrix(1, 0, 0, -1, 10.32, 10.32)"/>
<path fill="none" stroke-width="0.3985" stroke-linecap="butt" stroke-linejoin="miter" stroke="rgb(9.01947%, 43.528748%, 75.489807%)" stroke-opacity="1" stroke-miterlimit="10" d="M 548.465156 -147.320625 L 688.488594 -7.297188 " transform="matrix(1, 0, 0, -1, 10.32, 10.32)"/>
<path fill="none" stroke-width="0.3985" stroke-linecap="butt" stroke-linejoin="miter" stroke="rgb(9.01947%, 43.528748%, 75.489807%)" stroke-opacity="1" stroke-miterlimit="10" d="M 550.394844 -150.004219 L 686.555 -81.926094 " transform="matrix(1, 0, 0, -1, 10.32, 10.32)"/>
<path fill="none" stroke-width="0.3985" stroke-linecap="butt" stroke-linejoin="miter" stroke="rgb(9.01947%, 43.528748%, 75.489807%)" stroke-opacity="1" stroke-miterlimit="10" d="M 550.394844 -159.234688 L 686.555 -227.312813 " transform="matrix(1, 0, 0, -1, 10.32, 10.32)"/>
<path fill="none" stroke-width="0.3985" stroke-linecap="butt" stroke-linejoin="miter" stroke="rgb(9.01947%, 43.528748%, 75.489807%)" stroke-opacity="1" stroke-miterlimit="10" d="M 548.465156 -161.914375 L 688.488594 -301.941719 " transform="matrix(1, 0, 0, -1, 10.32, 10.32)"/>
<path fill="none" stroke-width="0.3985" stroke-linecap="butt" stroke-linejoin="miter" stroke="rgb(84.552002%, 57.254028%, 40.519714%)" stroke-opacity="1" stroke-miterlimit="10" d="M 541.168281 -164.937813 L 541.168281 -685.465156 " transform="matrix(1, 0, 0, -1, 10.32, 10.32)"/>
<path fill="none" stroke-width="0.3985" stroke-linecap="butt" stroke-linejoin="miter" stroke="rgb(9.01947%, 43.528748%, 75.489807%)" stroke-opacity="1" stroke-miterlimit="10" d="M 691.172187 -9.230781 L 623.090156 -145.390938 " transform="matrix(1, 0, 0, -1, 10.32, 10.32)"/>
<path fill="none" stroke-width="0.3985" stroke-linecap="butt" stroke-linejoin="miter" stroke="rgb(9.01947%, 43.528748%, 75.489807%)" stroke-opacity="1" stroke-miterlimit="10" d="M 700.39875 -9.230781 L 768.480781 -145.390938 " transform="matrix(1, 0, 0, -1, 10.32, 10.32)"/>
<path fill="none" stroke-width="0.3985" stroke-linecap="butt" stroke-linejoin="miter" stroke="rgb(9.01947%, 43.528748%, 75.489807%)" stroke-opacity="1" stroke-miterlimit="10" d="M 703.082344 -7.297188 L 843.105781 -147.320625 " transform="matrix(1, 0, 0, -1, 10.32, 10.32)"/>
<path fill="none" stroke-width="0.3985" stroke-linecap="butt" stroke-linejoin="miter" stroke="rgb(9.01947%, 43.528748%, 75.489807%)" stroke-opacity="1" stroke-miterlimit="10" d="M 688.488594 -84.605781 L 625.77375 -147.320625 " transform="matrix(1, 0, 0, -1, 10.32, 10.32)"/>
<path fill="none" stroke-width="0.3985" stroke-linecap="butt" stroke-linejoin="miter" stroke="rgb(9.01947%, 43.528748%, 75.489807%)" stroke-opacity="1" stroke-miterlimit="10" d="M 703.082344 -84.605781 L 765.797187 -147.320625 " transform="matrix(1, 0, 0, -1, 10.32, 10.32)"/>
<path fill="none" stroke-width="0.3985" stroke-linecap="butt" stroke-linejoin="miter" stroke="rgb(9.01947%, 43.528748%, 75.489807%)" stroke-opacity="1" stroke-miterlimit="10" d="M 705.015937 -81.926094 L 841.176094 -150.004219 " transform="matrix(1, 0, 0, -1, 10.32, 10.32)"/>
<path fill="none" stroke-width="0.3985" stroke-linecap="butt" stroke-linejoin="miter" stroke="rgb(9.01947%, 43.528748%, 75.489807%)" stroke-opacity="1" stroke-miterlimit="10" d="M 688.488594 -224.633125 L 625.77375 -161.914375 " transform="matrix(1, 0, 0, -1, 10.32, 10.32)"/>
<path fill="none" stroke-width="0.3985" stroke-linecap="butt" stroke-linejoin="miter" stroke="rgb(9.01947%, 43.528748%, 75.489807%)" stroke-opacity="1" stroke-miterlimit="10" d="M 703.082344 -224.633125 L 765.797187 -161.914375 " transform="matrix(1, 0, 0, -1, 10.32, 10.32)"/>
<path fill="none" stroke-width="0.3985" stroke-linecap="butt" stroke-linejoin="miter" stroke="rgb(9.01947%, 43.528748%, 75.489807%)" stroke-opacity="1" stroke-miterlimit="10" d="M 705.015937 -227.312813 L 841.176094 -159.234688 " transform="matrix(1, 0, 0, -1, 10.32, 10.32)"/>
<path fill="none" stroke-width="0.3985" stroke-linecap="butt" stroke-linejoin="miter" stroke="rgb(9.01947%, 43.528748%, 75.489807%)" stroke-opacity="1" stroke-miterlimit="10" d="M 691.172187 -300.008125 L 623.090156 -163.847969 " transform="matrix(1, 0, 0, -1, 10.32, 10.32)"/>
<path fill="none" stroke-width="0.3985" stroke-linecap="butt" stroke-linejoin="miter" stroke="rgb(9.01947%, 43.528748%, 75.489807%)" stroke-opacity="1" stroke-miterlimit="10" d="M 700.39875 -300.008125 L 768.480781 -163.847969 " transform="matrix(1, 0, 0, -1, 10.32, 10.32)"/>
<path fill="none" stroke-width="0.3985" stroke-linecap="butt" stroke-linejoin="miter" stroke="rgb(9.01947%, 43.528748%, 75.489807%)" stroke-opacity="1" stroke-miterlimit="10" d="M 703.082344 -301.941719 L 843.105781 -161.914375 " transform="matrix(1, 0, 0, -1, 10.32, 10.32)"/>
<path fill="none" stroke-width="0.3985" stroke-linecap="butt" stroke-linejoin="miter" stroke="rgb(84.552002%, 57.254028%, 40.519714%)" stroke-opacity="1" stroke-miterlimit="10" d="M 618.476875 -164.937813 L 618.476875 -685.465156 " transform="matrix(1, 0, 0, -1, 10.32, 10.32)"/>
<path fill="none" stroke-width="0.3985" stroke-linecap="butt" stroke-linejoin="miter" stroke="rgb(84.552002%, 57.254028%, 40.519714%)" stroke-opacity="1" stroke-miterlimit="10" d="M 773.094062 -164.937813 L 773.094062 -685.465156 " transform="matrix(1, 0, 0, -1, 10.32, 10.32)"/>
<path fill="none" stroke-width="0.3985" stroke-linecap="butt" stroke-linejoin="miter" stroke="rgb(84.552002%, 57.254028%, 40.519714%)" stroke-opacity="1" stroke-miterlimit="10" d="M 850.402656 -164.937813 L 850.402656 -685.465156 " transform="matrix(1, 0, 0, -1, 10.32, 10.32)"/>
<path fill="none" stroke-width="0.3985" stroke-linecap="butt" stroke-linejoin="miter" stroke="rgb(9.01947%, 43.528748%, 75.489807%)" stroke-opacity="1" stroke-miterlimit="10" d="M 7.297187 -688.488594 L 147.320625 -548.465156 " transform="matrix(1, 0, 0, -1, 10.32, 10.32)"/>
<path fill="none" stroke-width="0.3985" stroke-linecap="butt" stroke-linejoin="miter" stroke="rgb(9.01947%, 43.528748%, 75.489807%)" stroke-opacity="1" stroke-miterlimit="10" d="M 9.230781 -691.172188 L 145.390938 -623.090156 " transform="matrix(1, 0, 0, -1, 10.32, 10.32)"/>
<path fill="none" stroke-width="0.3985" stroke-linecap="butt" stroke-linejoin="miter" stroke="rgb(9.01947%, 43.528748%, 75.489807%)" stroke-opacity="1" stroke-miterlimit="10" d="M 9.230781 -700.39875 L 145.390938 -768.480781 " transform="matrix(1, 0, 0, -1, 10.32, 10.32)"/>
<path fill="none" stroke-width="0.3985" stroke-linecap="butt" stroke-linejoin="miter" stroke="rgb(9.01947%, 43.528748%, 75.489807%)" stroke-opacity="1" stroke-miterlimit="10" d="M 7.297187 -703.082344 L 147.320625 -843.105781 " transform="matrix(1, 0, 0, -1, 10.32, 10.32)"/>
<path fill="none" stroke-width="0.3985" stroke-linecap="butt" stroke-linejoin="miter" stroke="rgb(9.01947%, 43.528748%, 75.489807%)" stroke-opacity="1" stroke-miterlimit="10" d="M 150.004219 -550.394844 L 81.926094 -686.555 " transform="matrix(1, 0, 0, -1, 10.32, 10.32)"/>
<path fill="none" stroke-width="0.3985" stroke-linecap="butt" stroke-linejoin="miter" stroke="rgb(9.01947%, 43.528748%, 75.489807%)" stroke-opacity="1" stroke-miterlimit="10" d="M 159.234688 -550.394844 L 227.312813 -686.555 " transform="matrix(1, 0, 0, -1, 10.32, 10.32)"/>
<path fill="none" stroke-width="0.3985" stroke-linecap="butt" stroke-linejoin="miter" stroke="rgb(9.01947%, 43.528748%, 75.489807%)" stroke-opacity="1" stroke-miterlimit="10" d="M 161.914375 -548.465156 L 301.941719 -688.488594 " transform="matrix(1, 0, 0, -1, 10.32, 10.32)"/>
<path fill="none" stroke-width="0.3985" stroke-linecap="butt" stroke-linejoin="miter" stroke="rgb(84.552002%, 57.254028%, 40.519714%)" stroke-opacity="1" stroke-miterlimit="10" d="M 164.937813 -541.168281 L 685.465156 -541.168281 " transform="matrix(1, 0, 0, -1, 10.32, 10.32)"/>
<path fill="none" stroke-width="0.3985" stroke-linecap="butt" stroke-linejoin="miter" stroke="rgb(9.01947%, 43.528748%, 75.489807%)" stroke-opacity="1" stroke-miterlimit="10" d="M 147.320625 -625.77375 L 84.605781 -688.488594 " transform="matrix(1, 0, 0, -1, 10.32, 10.32)"/>
<path fill="none" stroke-width="0.3985" stroke-linecap="butt" stroke-linejoin="miter" stroke="rgb(9.01947%, 43.528748%, 75.489807%)" stroke-opacity="1" stroke-miterlimit="10" d="M 161.914375 -625.77375 L 224.633125 -688.488594 " transform="matrix(1, 0, 0, -1, 10.32, 10.32)"/>
<path fill="none" stroke-width="0.3985" stroke-linecap="butt" stroke-linejoin="miter" stroke="rgb(9.01947%, 43.528748%, 75.489807%)" stroke-opacity="1" stroke-miterlimit="10" d="M 163.847969 -623.090156 L 300.008125 -691.172188 " transform="matrix(1, 0, 0, -1, 10.32, 10.32)"/>
<path fill="none" stroke-width="0.3985" stroke-linecap="butt" stroke-linejoin="miter" stroke="rgb(84.552002%, 57.254028%, 40.519714%)" stroke-opacity="1" stroke-miterlimit="10" d="M 164.937813 -618.476875 L 685.465156 -618.476875 " transform="matrix(1, 0, 0, -1, 10.32, 10.32)"/>
<path fill="none" stroke-width="0.3985" stroke-linecap="butt" stroke-linejoin="miter" stroke="rgb(9.01947%, 43.528748%, 75.489807%)" stroke-opacity="1" stroke-miterlimit="10" d="M 147.320625 -765.797188 L 84.605781 -703.082344 " transform="matrix(1, 0, 0, -1, 10.32, 10.32)"/>
<path fill="none" stroke-width="0.3985" stroke-linecap="butt" stroke-linejoin="miter" stroke="rgb(9.01947%, 43.528748%, 75.489807%)" stroke-opacity="1" stroke-miterlimit="10" d="M 161.914375 -765.797188 L 224.633125 -703.082344 " transform="matrix(1, 0, 0, -1, 10.32, 10.32)"/>
<path fill="none" stroke-width="0.3985" stroke-linecap="butt" stroke-linejoin="miter" stroke="rgb(9.01947%, 43.528748%, 75.489807%)" stroke-opacity="1" stroke-miterlimit="10" d="M 163.847969 -768.480781 L 300.008125 -700.39875 " transform="matrix(1, 0, 0, -1, 10.32, 10.32)"/>
<path fill="none" stroke-width="0.3985" stroke-linecap="butt" stroke-linejoin="miter" stroke="rgb(84.552002%, 57.254028%, 40.519714%)" stroke-opacity="1" stroke-miterlimit="10" d="M 164.937813 -773.094063 L 685.465156 -773.094063 " transform="matrix(1, 0, 0, -1, 10.32, 10.32)"/>
<path fill="none" stroke-width="0.3985" stroke-linecap="butt" stroke-linejoin="miter" stroke="rgb(9.01947%, 43.528748%, 75.489807%)" stroke-opacity="1" stroke-miterlimit="10" d="M 150.004219 -841.176094 L 81.926094 -705.015938 " transform="matrix(1, 0, 0, -1, 10.32, 10.32)"/>
<path fill="none" stroke-width="0.3985" stroke-linecap="butt" stroke-linejoin="miter" stroke="rgb(9.01947%, 43.528748%, 75.489807%)" stroke-opacity="1" stroke-miterlimit="10" d="M 159.234688 -841.176094 L 227.312813 -705.015938 " transform="matrix(1, 0, 0, -1, 10.32, 10.32)"/>
<path fill="none" stroke-width="0.3985" stroke-linecap="butt" stroke-linejoin="miter" stroke="rgb(9.01947%, 43.528748%, 75.489807%)" stroke-opacity="1" stroke-miterlimit="10" d="M 161.914375 -843.105781 L 301.941719 -703.082344 " transform="matrix(1, 0, 0, -1, 10.32, 10.32)"/>
<path fill="none" stroke-width="0.3985" stroke-linecap="butt" stroke-linejoin="miter" stroke="rgb(84.552002%, 57.254028%, 40.519714%)" stroke-opacity="1" stroke-miterlimit="10" d="M 164.937813 -850.402656 L 685.465156 -850.402656 " transform="matrix(1, 0, 0, -1, 10.32, 10.32)"/>
<path fill="none" stroke-width="0.3985" stroke-linecap="butt" stroke-linejoin="miter" stroke="rgb(9.01947%, 43.528748%, 75.489807%)" stroke-opacity="1" stroke-miterlimit="10" d="M 548.465156 -688.488594 L 688.488594 -548.465156 " transform="matrix(1, 0, 0, -1, 10.32, 10.32)"/>
<path fill="none" stroke-width="0.3985" stroke-linecap="butt" stroke-linejoin="miter" stroke="rgb(9.01947%, 43.528748%, 75.489807%)" stroke-opacity="1" stroke-miterlimit="10" d="M 550.394844 -691.172188 L 686.555 -623.090156 " transform="matrix(1, 0, 0, -1, 10.32, 10.32)"/>
<path fill="none" stroke-width="0.3985" stroke-linecap="butt" stroke-linejoin="miter" stroke="rgb(9.01947%, 43.528748%, 75.489807%)" stroke-opacity="1" stroke-miterlimit="10" d="M 550.394844 -700.39875 L 686.555 -768.480781 " transform="matrix(1, 0, 0, -1, 10.32, 10.32)"/>
<path fill="none" stroke-width="0.3985" stroke-linecap="butt" stroke-linejoin="miter" stroke="rgb(9.01947%, 43.528748%, 75.489807%)" stroke-opacity="1" stroke-miterlimit="10" d="M 548.465156 -703.082344 L 688.488594 -843.105781 " transform="matrix(1, 0, 0, -1, 10.32, 10.32)"/>
<path fill="none" stroke-width="0.3985" stroke-linecap="butt" stroke-linejoin="miter" stroke="rgb(9.01947%, 43.528748%, 75.489807%)" stroke-opacity="1" stroke-miterlimit="10" d="M 691.172187 -550.394844 L 623.090156 -686.555 " transform="matrix(1, 0, 0, -1, 10.32, 10.32)"/>
<path fill="none" stroke-width="0.3985" stroke-linecap="butt" stroke-linejoin="miter" stroke="rgb(9.01947%, 43.528748%, 75.489807%)" stroke-opacity="1" stroke-miterlimit="10" d="M 700.39875 -550.394844 L 768.480781 -686.555 " transform="matrix(1, 0, 0, -1, 10.32, 10.32)"/>
<path fill="none" stroke-width="0.3985" stroke-linecap="butt" stroke-linejoin="miter" stroke="rgb(9.01947%, 43.528748%, 75.489807%)" stroke-opacity="1" stroke-miterlimit="10" d="M 703.082344 -548.465156 L 843.105781 -688.488594 " transform="matrix(1, 0, 0, -1, 10.32, 10.32)"/>
<path fill="none" stroke-width="0.3985" stroke-linecap="butt" stroke-linejoin="miter" stroke="rgb(9.01947%, 43.528748%, 75.489807%)" stroke-opacity="1" stroke-miterlimit="10" d="M 688.488594 -625.77375 L 625.77375 -688.488594 " transform="matrix(1, 0, 0, -1, 10.32, 10.32)"/>
<path fill="none" stroke-width="0.3985" stroke-linecap="butt" stroke-linejoin="miter" stroke="rgb(9.01947%, 43.528748%, 75.489807%)" stroke-opacity="1" stroke-miterlimit="10" d="M 703.082344 -625.77375 L 765.797187 -688.488594 " transform="matrix(1, 0, 0, -1, 10.32, 10.32)"/>
<path fill="none" stroke-width="0.3985" stroke-linecap="butt" stroke-linejoin="miter" stroke="rgb(9.01947%, 43.528748%, 75.489807%)" stroke-opacity="1" stroke-miterlimit="10" d="M 705.015937 -623.090156 L 841.176094 -691.172188 " transform="matrix(1, 0, 0, -1, 10.32, 10.32)"/>
<path fill="none" stroke-width="0.3985" stroke-linecap="butt" stroke-linejoin="miter" stroke="rgb(9.01947%, 43.528748%, 75.489807%)" stroke-opacity="1" stroke-miterlimit="10" d="M 688.488594 -765.797188 L 625.77375 -703.082344 " transform="matrix(1, 0, 0, -1, 10.32, 10.32)"/>
<path fill="none" stroke-width="0.3985" stroke-linecap="butt" stroke-linejoin="miter" stroke="rgb(9.01947%, 43.528748%, 75.489807%)" stroke-opacity="1" stroke-miterlimit="10" d="M 703.082344 -765.797188 L 765.797187 -703.082344 " transform="matrix(1, 0, 0, -1, 10.32, 10.32)"/>
<path fill="none" stroke-width="0.3985" stroke-linecap="butt" stroke-linejoin="miter" stroke="rgb(9.01947%, 43.528748%, 75.489807%)" stroke-opacity="1" stroke-miterlimit="10" d="M 705.015937 -768.480781 L 841.176094 -700.39875 " transform="matrix(1, 0, 0, -1, 10.32, 10.32)"/>
<path fill="none" stroke-width="0.3985" stroke-linecap="butt" stroke-linejoin="miter" stroke="rgb(9.01947%, 43.528748%, 75.489807%)" stroke-opacity="1" stroke-miterlimit="10" d="M 691.172187 -841.176094 L 623.090156 -705.015938 " transform="matrix(1, 0, 0, -1, 10.32, 10.32)"/>
<path fill="none" stroke-width="0.3985" stroke-linecap="butt" stroke-linejoin="miter" stroke="rgb(9.01947%, 43.528748%, 75.489807%)" stroke-opacity="1" stroke-miterlimit="10" d="M 700.39875 -841.176094 L 768.480781 -705.015938 " transform="matrix(1, 0, 0, -1, 10.32, 10.32)"/>
<path fill="none" stroke-width="0.3985" stroke-linecap="butt" stroke-linejoin="miter" stroke="rgb(9.01947%, 43.528748%, 75.489807%)" stroke-opacity="1" stroke-miterlimit="10" d="M 703.082344 -843.105781 L 843.105781 -703.082344 " transform="matrix(1, 0, 0, -1, 10.32, 10.32)"/>
<path fill-rule="nonzero" fill="rgb(100%, 100%, 100%)" fill-opacity="1" stroke-width="0.79701" stroke-linecap="butt" stroke-linejoin="miter" stroke="rgb(25%, 25%, 25%)" stroke-opacity="1" stroke-miterlimit="10" d="M 9.922187 -154.6175 C 9.922187 -149.140938 5.480781 -144.695625 0.0003125 -144.695625 C -5.480156 -144.695625 -9.921563 -149.140938 -9.921563 -154.6175 C -9.921563 -160.097969 -5.480156 -164.539375 0.0003125 -164.539375 C 5.480781 -164.539375 9.922187 -160.097969 9.922187 -154.6175 Z M 9.922187 -154.6175 " transform="matrix(1, 0, 0, -1, 10.32, 10.32)"/>
<path fill-rule="nonzero" fill="rgb(100%, 100%, 100%)" fill-opacity="1" stroke-width="0.79701" stroke-linecap="butt" stroke-linejoin="miter" stroke="rgb(25%, 25%, 25%)" stroke-opacity="1" stroke-miterlimit="10" d="M 164.539375 -0.0003125 C 164.539375 5.480156 160.097969 9.921562 154.6175 9.921562 C 149.140938 9.921562 144.695625 5.480156 144.695625 -0.0003125 C 144.695625 -5.480781 149.140938 -9.922188 154.6175 -9.922188 C 160.097969 -9.922188 164.539375 -5.480781 164.539375 -0.0003125 Z M 164.539375 -0.0003125 " transform="matrix(1, 0, 0, -1, 10.32, 10.32)"/>
<path fill-rule="nonzero" fill="rgb(100%, 100%, 100%)" fill-opacity="1" stroke-width="0.79701" stroke-linecap="butt" stroke-linejoin="miter" stroke="rgb(25%, 25%, 25%)" stroke-opacity="1" stroke-miterlimit="10" d="M 164.539375 -77.308906 C 164.539375 -71.828438 160.097969 -67.387031 154.6175 -67.387031 C 149.140938 -67.387031 144.695625 -71.828438 144.695625 -77.308906 C 144.695625 -82.789375 149.140938 -87.230781 154.6175 -87.230781 C 160.097969 -87.230781 164.539375 -82.789375 164.539375 -77.308906 Z M 164.539375 -77.308906 " transform="matrix(1, 0, 0, -1, 10.32, 10.32)"/>
<path fill-rule="nonzero" fill="rgb(100%, 100%, 100%)" fill-opacity="1" stroke-width="0.79701" stroke-linecap="butt" stroke-linejoin="miter" stroke="rgb(25%, 25%, 25%)" stroke-opacity="1" stroke-miterlimit="10" d="M 164.539375 -231.93 C 164.539375 -226.449531 160.097969 -222.008125 154.6175 -222.008125 C 149.140938 -222.008125 144.695625 -226.449531 144.695625 -231.93 C 144.695625 -237.406563 149.140938 -241.851875 154.6175 -241.851875 C 160.097969 -241.851875 164.539375 -237.406563 164.539375 -231.93 Z M 164.539375 -231.93 " transform="matrix(1, 0, 0, -1, 10.32, 10.32)"/>
<path fill-rule="nonzero" fill="rgb(100%, 100%, 100%)" fill-opacity="1" stroke-width="0.79701" stroke-linecap="butt" stroke-linejoin="miter" stroke="rgb(25%, 25%, 25%)" stroke-opacity="1" stroke-miterlimit="10" d="M 164.539375 -309.238594 C 164.539375 -303.758125 160.097969 -299.316719 154.6175 -299.316719 C 149.140938 -299.316719 144.695625 -303.758125 144.695625 -309.238594 C 144.695625 -314.719063 149.140938 -319.160469 154.6175 -319.160469 C 160.097969 -319.160469 164.539375 -314.719063 164.539375 -309.238594 Z M 164.539375 -309.238594 " transform="matrix(1, 0, 0, -1, 10.32, 10.32)"/>
<path fill-rule="nonzero" fill="rgb(100%, 100%, 100%)" fill-opacity="1" stroke-width="0.79701" stroke-linecap="butt" stroke-linejoin="miter" stroke="rgb(25%, 25%, 25%)" stroke-opacity="1" stroke-miterlimit="10" d="M 87.230781 -154.6175 C 87.230781 -149.140938 82.789375 -144.695625 77.308906 -144.695625 C 71.828438 -144.695625 67.387031 -149.140938 67.387031 -154.6175 C 67.387031 -160.097969 71.828438 -164.539375 77.308906 -164.539375 C 82.789375 -164.539375 87.230781 -160.097969 87.230781 -154.6175 Z M 87.230781 -154.6175 " transform="matrix(1, 0, 0, -1, 10.32, 10.32)"/>
<path fill-rule="nonzero" fill="rgb(100%, 100%, 100%)" fill-opacity="1" stroke-width="0.79701" stroke-linecap="butt" stroke-linejoin="miter" stroke="rgb(25%, 25%, 25%)" stroke-opacity="1" stroke-miterlimit="10" d="M 241.851875 -154.6175 C 241.851875 -149.140938 237.406563 -144.695625 231.93 -144.695625 C 226.449531 -144.695625 222.008125 -149.140938 222.008125 -154.6175 C 222.008125 -160.097969 226.449531 -164.539375 231.93 -164.539375 C 237.406563 -164.539375 241.851875 -160.097969 241.851875 -154.6175 Z M 241.851875 -154.6175 " transform="matrix(1, 0, 0, -1, 10.32, 10.32)"/>
<path fill-rule="nonzero" fill="rgb(100%, 100%, 100%)" fill-opacity="1" stroke-width="0.79701" stroke-linecap="butt" stroke-linejoin="miter" stroke="rgb(25%, 25%, 25%)" stroke-opacity="1" stroke-miterlimit="10" d="M 319.160469 -154.6175 C 319.160469 -149.140938 314.719063 -144.695625 309.238594 -144.695625 C 303.758125 -144.695625 299.316719 -149.140938 299.316719 -154.6175 C 299.316719 -160.097969 303.758125 -164.539375 309.238594 -164.539375 C 314.719063 -164.539375 319.160469 -160.097969 319.160469 -154.6175 Z M 319.160469 -154.6175 " transform="matrix(1, 0, 0, -1, 10.32, 10.32)"/>
<path fill-rule="nonzero" fill="rgb(100%, 100%, 100%)" fill-opacity="1" stroke-width="0.79701" stroke-linecap="butt" stroke-linejoin="miter" stroke="rgb(25%, 25%, 25%)" stroke-opacity="1" stroke-miterlimit="10" d="M 551.08625 -154.6175 C 551.08625 -149.140938 546.644844 -144.695625 541.168281 -144.695625 C 535.687812 -144.695625 531.246406 -149.140938 531.246406 -154.6175 C 531.246406 -160.097969 535.687812 -164.539375 541.168281 -164.539375 C 546.644844 -164.539375 551.08625 -160.097969 551.08625 -154.6175 Z M 551.08625 -154.6175 " transform="matrix(1, 0, 0, -1, 10.32, 10.32)"/>
<path fill-rule="nonzero" fill="rgb(100%, 100%, 100%)" fill-opacity="1" stroke-width="0.79701" stroke-linecap="butt" stroke-linejoin="miter" stroke="rgb(25%, 25%, 25%)" stroke-opacity="1" stroke-miterlimit="10" d="M 705.707344 -0.0003125 C 705.707344 5.480156 701.265937 9.921562 695.785469 9.921562 C 690.305 9.921562 685.863594 5.480156 685.863594 -0.0003125 C 685.863594 -5.480781 690.305 -9.922188 695.785469 -9.922188 C 701.265937 -9.922188 705.707344 -5.480781 705.707344 -0.0003125 Z M 705.707344 -0.0003125 " transform="matrix(1, 0, 0, -1, 10.32, 10.32)"/>
<path fill-rule="nonzero" fill="rgb(100%, 100%, 100%)" fill-opacity="1" stroke-width="0.79701" stroke-linecap="butt" stroke-linejoin="miter" stroke="rgb(25%, 25%, 25%)" stroke-opacity="1" stroke-miterlimit="10" d="M 705.707344 -77.308906 C 705.707344 -71.828438 701.265937 -67.387031 695.785469 -67.387031 C 690.305 -67.387031 685.863594 -71.828438 685.863594 -77.308906 C 685.863594 -82.789375 690.305 -87.230781 695.785469 -87.230781 C 701.265937 -87.230781 705.707344 -82.789375 705.707344 -77.308906 Z M 705.707344 -77.308906 " transform="matrix(1, 0, 0, -1, 10.32, 10.32)"/>
<path fill-rule="nonzero" fill="rgb(100%, 100%, 100%)" fill-opacity="1" stroke-width="0.79701" stroke-linecap="butt" stroke-linejoin="miter" stroke="rgb(25%, 25%, 25%)" stroke-opacity="1" stroke-miterlimit="10" d="M 705.707344 -231.93 C 705.707344 -226.449531 701.265937 -222.008125 695.785469 -222.008125 C 690.305 -222.008125 685.863594 -226.449531 685.863594 -231.93 C 685.863594 -237.406563 690.305 -241.851875 695.785469 -241.851875 C 701.265937 -241.851875 705.707344 -237.406563 705.707344 -231.93 Z M 705.707344 -231.93 " transform="matrix(1, 0, 0, -1, 10.32, 10.32)"/>
<path fill-rule="nonzero" fill="rgb(100%, 100%, 100%)" fill-opacity="1" stroke-width="0.79701" stroke-linecap="butt" stroke-linejoin="miter" stroke="rgb(25%, 25%, 25%)" stroke-opacity="1" stroke-miterlimit="10" d="M 705.707344 -309.238594 C 705.707344 -303.758125 701.265937 -299.316719 695.785469 -299.316719 C 690.305 -299.316719 685.863594 -303.758125 685.863594 -309.238594 C 685.863594 -314.719063 690.305 -319.160469 695.785469 -319.160469 C 701.265937 -319.160469 705.707344 -314.719063 705.707344 -309.238594 Z M 705.707344 -309.238594 " transform="matrix(1, 0, 0, -1, 10.32, 10.32)"/>
<path fill-rule="nonzero" fill="rgb(100%, 100%, 100%)" fill-opacity="1" stroke-width="0.79701" stroke-linecap="butt" stroke-linejoin="miter" stroke="rgb(25%, 25%, 25%)" stroke-opacity="1" stroke-miterlimit="10" d="M 628.39875 -154.6175 C 628.39875 -149.140938 623.953437 -144.695625 618.476875 -144.695625 C 612.996406 -144.695625 608.555 -149.140938 608.555 -154.6175 C 608.555 -160.097969 612.996406 -164.539375 618.476875 -164.539375 C 623.953437 -164.539375 628.39875 -160.097969 628.39875 -154.6175 Z M 628.39875 -154.6175 " transform="matrix(1, 0, 0, -1, 10.32, 10.32)"/>
<path fill-rule="nonzero" fill="rgb(100%, 100%, 100%)" fill-opacity="1" stroke-width="0.79701" stroke-linecap="butt" stroke-linejoin="miter" stroke="rgb(25%, 25%, 25%)" stroke-opacity="1" stroke-miterlimit="10" d="M 783.015937 -154.6175 C 783.015937 -149.140938 778.574531 -144.695625 773.094062 -144.695625 C 767.613594 -144.695625 763.172187 -149.140938 763.172187 -154.6175 C 763.172187 -160.097969 767.613594 -164.539375 773.094062 -164.539375 C 778.574531 -164.539375 783.015937 -160.097969 783.015937 -154.6175 Z M 783.015937 -154.6175 " transform="matrix(1, 0, 0, -1, 10.32, 10.32)"/>
<path fill-rule="nonzero" fill="rgb(100%, 100%, 100%)" fill-opacity="1" d="M 870.644531 164.9375 C 870.644531 159.460938 866.203125 155.015625 860.722656 155.015625 C 855.246094 155.015625 850.804688 159.460938 850.804688 164.9375 C 850.804688 170.417969 855.246094 174.859375 860.722656 174.859375 C 866.203125 174.859375 870.644531 170.417969 870.644531 164.9375 Z M 870.644531 164.9375 "/>
<g clip-path="url(#clip-0)">
<path fill="none" stroke-width="0.79701" stroke-linecap="butt" stroke-linejoin="miter" stroke="rgb(25%, 25%, 25%)" stroke-opacity="1" stroke-miterlimit="10" d="M 860.324531 -154.6175 C 860.324531 -149.140938 855.883125 -144.695625 850.402656 -144.695625 C 844.926094 -144.695625 840.484687 -149.140938 840.484687 -154.6175 C 840.484687 -160.097969 844.926094 -164.539375 850.402656 -164.539375 C 855.883125 -164.539375 860.324531 -160.097969 860.324531 -154.6175 Z M 860.324531 -154.6175 " transform="matrix(1, 0, 0, -1, 10.32, 10.32)"/>
</g>
<path fill-rule="nonzero" fill="rgb(100%, 100%, 100%)" fill-opacity="1" stroke-width="0.79701" stroke-linecap="butt" stroke-linejoin="miter" stroke="rgb(25%, 25%, 25%)" stroke-opacity="1" stroke-miterlimit="10" d="M 9.922187 -695.785469 C 9.922187 -690.305 5.480781 -685.863594 0.0003125 -685.863594 C -5.480156 -685.863594 -9.921563 -690.305 -9.921563 -695.785469 C -9.921563 -701.265938 -5.480156 -705.707344 0.0003125 -705.707344 C 5.480781 -705.707344 9.922187 -701.265938 9.922187 -695.785469 Z M 9.922187 -695.785469 " transform="matrix(1, 0, 0, -1, 10.32, 10.32)"/>
<path fill-rule="nonzero" fill="rgb(100%, 100%, 100%)" fill-opacity="1" stroke-width="0.79701" stroke-linecap="butt" stroke-linejoin="miter" stroke="rgb(25%, 25%, 25%)" stroke-opacity="1" stroke-miterlimit="10" d="M 164.539375 -541.168281 C 164.539375 -535.687813 160.097969 -531.246406 154.6175 -531.246406 C 149.140938 -531.246406 144.695625 -535.687813 144.695625 -541.168281 C 144.695625 -546.644844 149.140938 -551.08625 154.6175 -551.08625 C 160.097969 -551.08625 164.539375 -546.644844 164.539375 -541.168281 Z M 164.539375 -541.168281 " transform="matrix(1, 0, 0, -1, 10.32, 10.32)"/>
<path fill-rule="nonzero" fill="rgb(100%, 100%, 100%)" fill-opacity="1" stroke-width="0.79701" stroke-linecap="butt" stroke-linejoin="miter" stroke="rgb(25%, 25%, 25%)" stroke-opacity="1" stroke-miterlimit="10" d="M 164.539375 -618.476875 C 164.539375 -612.996406 160.097969 -608.555 154.6175 -608.555 C 149.140938 -608.555 144.695625 -612.996406 144.695625 -618.476875 C 144.695625 -623.953438 149.140938 -628.39875 154.6175 -628.39875 C 160.097969 -628.39875 164.539375 -623.953438 164.539375 -618.476875 Z M 164.539375 -618.476875 " transform="matrix(1, 0, 0, -1, 10.32, 10.32)"/>
<path fill-rule="nonzero" fill="rgb(100%, 100%, 100%)" fill-opacity="1" stroke-width="0.79701" stroke-linecap="butt" stroke-linejoin="miter" stroke="rgb(25%, 25%, 25%)" stroke-opacity="1" stroke-miterlimit="10" d="M 164.539375 -773.094063 C 164.539375 -767.613594 160.097969 -763.172188 154.6175 -763.172188 C 149.140938 -763.172188 144.695625 -767.613594 144.695625 -773.094063 C 144.695625 -778.574531 149.140938 -783.015938 154.6175 -783.015938 C 160.097969 -783.015938 164.539375 -778.574531 164.539375 -773.094063 Z M 164.539375 -773.094063 " transform="matrix(1, 0, 0, -1, 10.32, 10.32)"/>
<path fill-rule="nonzero" fill="rgb(100%, 100%, 100%)" fill-opacity="1" d="M 174.859375 860.722656 C 174.859375 855.246094 170.417969 850.804688 164.9375 850.804688 C 159.460938 850.804688 155.015625 855.246094 155.015625 860.722656 C 155.015625 866.203125 159.460938 870.644531 164.9375 870.644531 C 170.417969 870.644531 174.859375 866.203125 174.859375 860.722656 Z M 174.859375 860.722656 "/>
<g clip-path="url(#clip-1)">
<path fill="none" stroke-width="0.79701" stroke-linecap="butt" stroke-linejoin="miter" stroke="rgb(25%, 25%, 25%)" stroke-opacity="1" stroke-miterlimit="10" d="M 164.539375 -850.402656 C 164.539375 -844.926094 160.097969 -840.484688 154.6175 -840.484688 C 149.140938 -840.484688 144.695625 -844.926094 144.695625 -850.402656 C 144.695625 -855.883125 149.140938 -860.324531 154.6175 -860.324531 C 160.097969 -860.324531 164.539375 -855.883125 164.539375 -850.402656 Z M 164.539375 -850.402656 " transform="matrix(1, 0, 0, -1, 10.32, 10.32)"/>
</g>
<path fill-rule="nonzero" fill="rgb(100%, 100%, 100%)" fill-opacity="1" stroke-width="0.79701" stroke-linecap="butt" stroke-linejoin="miter" stroke="rgb(25%, 25%, 25%)" stroke-opacity="1" stroke-miterlimit="10" d="M 87.230781 -695.785469 C 87.230781 -690.305 82.789375 -685.863594 77.308906 -685.863594 C 71.828438 -685.863594 67.387031 -690.305 67.387031 -695.785469 C 67.387031 -701.265938 71.828438 -705.707344 77.308906 -705.707344 C 82.789375 -705.707344 87.230781 -701.265938 87.230781 -695.785469 Z M 87.230781 -695.785469 " transform="matrix(1, 0, 0, -1, 10.32, 10.32)"/>
<path fill-rule="nonzero" fill="rgb(100%, 100%, 100%)" fill-opacity="1" stroke-width="0.79701" stroke-linecap="butt" stroke-linejoin="miter" stroke="rgb(25%, 25%, 25%)" stroke-opacity="1" stroke-miterlimit="10" d="M 241.851875 -695.785469 C 241.851875 -690.305 237.406563 -685.863594 231.93 -685.863594 C 226.449531 -685.863594 222.008125 -690.305 222.008125 -695.785469 C 222.008125 -701.265938 226.449531 -705.707344 231.93 -705.707344 C 237.406563 -705.707344 241.851875 -701.265938 241.851875 -695.785469 Z M 241.851875 -695.785469 " transform="matrix(1, 0, 0, -1, 10.32, 10.32)"/>
<path fill-rule="nonzero" fill="rgb(100%, 100%, 100%)" fill-opacity="1" stroke-width="0.79701" stroke-linecap="butt" stroke-linejoin="miter" stroke="rgb(25%, 25%, 25%)" stroke-opacity="1" stroke-miterlimit="10" d="M 319.160469 -695.785469 C 319.160469 -690.305 314.719063 -685.863594 309.238594 -685.863594 C 303.758125 -685.863594 299.316719 -690.305 299.316719 -695.785469 C 299.316719 -701.265938 303.758125 -705.707344 309.238594 -705.707344 C 314.719063 -705.707344 319.160469 -701.265938 319.160469 -695.785469 Z M 319.160469 -695.785469 " transform="matrix(1, 0, 0, -1, 10.32, 10.32)"/>
<path fill-rule="nonzero" fill="rgb(100%, 100%, 100%)" fill-opacity="1" stroke-width="0.79701" stroke-linecap="butt" stroke-linejoin="miter" stroke="rgb(25%, 25%, 25%)" stroke-opacity="1" stroke-miterlimit="10" d="M 551.08625 -695.785469 C 551.08625 -690.305 546.644844 -685.863594 541.168281 -685.863594 C 535.687812 -685.863594 531.246406 -690.305 531.246406 -695.785469 C 531.246406 -701.265938 535.687812 -705.707344 541.168281 -705.707344 C 546.644844 -705.707344 551.08625 -701.265938 551.08625 -695.785469 Z M 551.08625 -695.785469 " transform="matrix(1, 0, 0, -1, 10.32, 10.32)"/>
<path fill-rule="nonzero" fill="rgb(100%, 100%, 100%)" fill-opacity="1" stroke-width="0.79701" stroke-linecap="butt" stroke-linejoin="miter" stroke="rgb(25%, 25%, 25%)" stroke-opacity="1" stroke-miterlimit="10" d="M 705.707344 -541.168281 C 705.707344 -535.687813 701.265937 -531.246406 695.785469 -531.246406 C 690.305 -531.246406 685.863594 -535.687813 685.863594 -541.168281 C 685.863594 -546.644844 690.305 -551.08625 695.785469 -551.08625 C 701.265937 -551.08625 705.707344 -546.644844 705.707344 -541.168281 Z M 705.707344 -541.168281 " transform="matrix(1, 0, 0, -1, 10.32, 10.32)"/>
<path fill-rule="nonzero" fill="rgb(100%, 100%, 100%)" fill-opacity="1" stroke-width="0.79701" stroke-linecap="butt" stroke-linejoin="miter" stroke="rgb(25%, 25%, 25%)" stroke-opacity="1" stroke-miterlimit="10" d="M 705.707344 -618.476875 C 705.707344 -612.996406 701.265937 -608.555 695.785469 -608.555 C 690.305 -608.555 685.863594 -612.996406 685.863594 -618.476875 C 685.863594 -623.953438 690.305 -628.39875 695.785469 -628.39875 C 701.265937 -628.39875 705.707344 -623.953438 705.707344 -618.476875 Z M 705.707344 -618.476875 " transform="matrix(1, 0, 0, -1, 10.32, 10.32)"/>
<path fill-rule="nonzero" fill="rgb(100%, 100%, 100%)" fill-opacity="1" stroke-width="0.79701" stroke-linecap="butt" stroke-linejoin="miter" stroke="rgb(25%, 25%, 25%)" stroke-opacity="1" stroke-miterlimit="10" d="M 705.707344 -773.094063 C 705.707344 -767.613594 701.265937 -763.172188 695.785469 -763.172188 C 690.305 -763.172188 685.863594 -767.613594 685.863594 -773.094063 C 685.863594 -778.574531 690.305 -783.015938 695.785469 -783.015938 C 701.265937 -783.015938 705.707344 -778.574531 705.707344 -773.094063 Z M 705.707344 -773.094063 " transform="matrix(1, 0, 0, -1, 10.32, 10.32)"/>
<path fill-rule="nonzero" fill="rgb(100%, 100%, 100%)" fill-opacity="1" d="M 716.027344 860.722656 C 716.027344 855.246094 711.585938 850.804688 706.105469 850.804688 C 700.625 850.804688 696.183594 855.246094 696.183594 860.722656 C 696.183594 866.203125 700.625 870.644531 706.105469 870.644531 C 711.585938 870.644531 716.027344 866.203125 716.027344 860.722656 Z M 716.027344 860.722656 "/>
<g clip-path="url(#clip-2)">
<path fill="none" stroke-width="0.79701" stroke-linecap="butt" stroke-linejoin="miter" stroke="rgb(25%, 25%, 25%)" stroke-opacity="1" stroke-miterlimit="10" d="M 705.707344 -850.402656 C 705.707344 -844.926094 701.265937 -840.484688 695.785469 -840.484688 C 690.305 -840.484688 685.863594 -844.926094 685.863594 -850.402656 C 685.863594 -855.883125 690.305 -860.324531 695.785469 -860.324531 C 701.265937 -860.324531 705.707344 -855.883125 705.707344 -850.402656 Z M 705.707344 -850.402656 " transform="matrix(1, 0, 0, -1, 10.32, 10.32)"/>
</g>
<path fill-rule="nonzero" fill="rgb(100%, 100%, 100%)" fill-opacity="1" stroke-width="0.79701" stroke-linecap="butt" stroke-linejoin="miter" stroke="rgb(25%, 25%, 25%)" stroke-opacity="1" stroke-miterlimit="10" d="M 628.39875 -695.785469 C 628.39875 -690.305 623.953437 -685.863594 618.476875 -685.863594 C 612.996406 -685.863594 608.555 -690.305 608.555 -695.785469 C 608.555 -701.265938 612.996406 -705.707344 618.476875 -705.707344 C 623.953437 -705.707344 628.39875 -701.265938 628.39875 -695.785469 Z M 628.39875 -695.785469 " transform="matrix(1, 0, 0, -1, 10.32, 10.32)"/>
<path fill-rule="nonzero" fill="rgb(100%, 100%, 100%)" fill-opacity="1" stroke-width="0.79701" stroke-linecap="butt" stroke-linejoin="miter" stroke="rgb(25%, 25%, 25%)" stroke-opacity="1" stroke-miterlimit="10" d="M 783.015937 -695.785469 C 783.015937 -690.305 778.574531 -685.863594 773.094062 -685.863594 C 767.613594 -685.863594 763.172187 -690.305 763.172187 -695.785469 C 763.172187 -701.265938 767.613594 -705.707344 773.094062 -705.707344 C 778.574531 -705.707344 783.015937 -701.265938 783.015937 -695.785469 Z M 783.015937 -695.785469 " transform="matrix(1, 0, 0, -1, 10.32, 10.32)"/>
<path fill-rule="nonzero" fill="rgb(100%, 100%, 100%)" fill-opacity="1" d="M 870.644531 706.105469 C 870.644531 700.625 866.203125 696.183594 860.722656 696.183594 C 855.246094 696.183594 850.804688 700.625 850.804688 706.105469 C 850.804688 711.585938 855.246094 716.027344 860.722656 716.027344 C 866.203125 716.027344 870.644531 711.585938 870.644531 706.105469 Z M 870.644531 706.105469 "/>
<g clip-path="url(#clip-3)">
<path fill="none" stroke-width="0.79701" stroke-linecap="butt" stroke-linejoin="miter" stroke="rgb(25%, 25%, 25%)" stroke-opacity="1" stroke-miterlimit="10" d="M 860.324531 -695.785469 C 860.324531 -690.305 855.883125 -685.863594 850.402656 -685.863594 C 844.926094 -685.863594 840.484687 -690.305 840.484687 -695.785469 C 840.484687 -701.265938 844.926094 -705.707344 850.402656 -705.707344 C 855.883125 -705.707344 860.324531 -701.265938 860.324531 -695.785469 Z M 860.324531 -695.785469 " transform="matrix(1, 0, 0, -1, 10.32, 10.32)"/>
</g>
</svg>
